
<svg xmlns="http://www.w3.org/2000/svg" version="1.1" xmlns:xlink="http://www.w3.org/1999/xlink" preserveAspectRatio="none" x="0px" y="0px" width="550px" height="400px" viewBox="0 0 550 400">
<defs>
<g id="Layer4_0_FILL">
<path fill="#0AAAE5" stroke="none" d="
M 330.7 13.6
Q 329.0373046875 13.175 327.35 12.8 317.391015625 10.589453125 306.85 10.1
L 306.85 10.1 306.25 10.1
Q 303.757421875 10 301.2 10 298.6447265625 10 296.1 10.1
L 237.05 10.1
Q 234.557421875 10 232 10 218.47578125 10 205.85 12.8 204.18828125 13.175 202.5 13.6 163.5912109375 23.5099609375 133.7 60.7 93 111.45 93 183.2 93 254.95 133.7 305.7 174.45 356.4 232 356.4 233.556640625 356.4 235.1 356.35
L 235.1 356.4 309.6 356.4 309.6 356.1
Q 311.826953125 355.97734375 314 355.75
L 314.7 355.75 314.7 355.65
Q 363.6552734375 350.3517578125 399.5 305.7 440.2 254.95 440.2 183.2 440.2 111.45 399.5 60.7 369.6453125 23.5099609375 330.7 13.6
M 232 21.95
Q 285.6 21.95 323.5 69.15 361.4 116.4 361.4 183.2 361.4 250 323.5 297.25 285.6 344.45 232 344.45 178.4 344.45 140.45 297.25 102.6 250 102.6 183.2 102.6 116.4 140.45 69.15 178.4 21.95 232 21.95
M 358 96.3
Q 353.2529296875 84.8326171875 345.2 74.1
L 398 74.3
Q 406.84921875 84.58359375 411.4 96.3
L 358 96.3
M 378.9 52.8
L 329.1 52.8
Q 318.7603515625 40.198046875 303.4 30.3
L 347.6 30.3
Q 366.0228515625 39.1732421875 378.9 52.8
M 372.8 139.9
Q 370.3529296875 128.38515625 366.4 118
L 420.6 118
Q 425.4099609375 128.194921875 427.2 139.9
L 372.8 139.9
M 345.7 293.5
Q 353.2623046875 281.984375 357.9 271.2
L 411.3 271.2
Q 407.0439453125 282.35 398.4 293.5
L 345.7 293.5
M 249.3 94.9
L 256.25 71.9 221 71.9 212 96.55
Q 134.1 97.2 112.8 125.85
L 121.5 148.1
Q 162.1 121.85 206.35 121.5
L 149.05 295.5 184.65 295.5 189.35 277.9 210.35 276.6
Q 213.65 276.25 217 275.9 220.7 275.6 224.3 274.85
L 218.65 296.2 250.65 296.2 257.6 267.9
Q 340.4 243.95 349.75 165.75 341.15 123.15 301.2 106.2
L 309.45 72.55 277.9 72.55 271.9 97.2
Q 261.6 95.55 249.3 94.9
M 244.35 247.95
Q 224.3 259.9 196.35 256.6
L 240.5 122.55
Q 383.7 164.7 244.35 247.95 Z"/>

<path fill="#FFFFFF" stroke="none" d="
M 323.5 69.15
Q 285.6 21.95 232 21.95 178.4 21.95 140.45 69.15 102.6 116.4 102.6 183.2 102.6 250 140.45 297.25 178.4 344.45 232 344.45 285.6 344.45 323.5 297.25 361.4 250 361.4 183.2 361.4 116.4 323.5 69.15
M 256.25 71.9
L 249.3 94.9
Q 261.6 95.55 271.9 97.2
L 277.9 72.55 309.45 72.55 301.2 106.2
Q 341.15 123.15 349.75 165.75 340.4 243.95 257.6 267.9
L 250.65 296.2 218.65 296.2 224.3 274.85
Q 220.7 275.6 217 275.9 213.65 276.25 210.35 276.6
L 189.35 277.9 184.65 295.5 149.05 295.5 206.35 121.5
Q 162.1 121.85 121.5 148.1
L 112.8 125.85
Q 134.1 97.2 212 96.55
L 221 71.9 256.25 71.9
M 196.35 256.6
Q 224.3 259.9 244.35 247.95 383.7 164.7 240.5 122.55
L 196.35 256.6 Z"/>
</g>
</defs>

<g transform="matrix( 1, 0, 0, 1, 0,0) ">
<use xlink:href="#Layer4_0_FILL"/>
</g>
</svg>
